<?xml version="1.0" encoding="UTF-8" standalone="no"?>
<svg
   data-name="Layer 1"
   viewBox="0 0 77.550026 80"
   x="0px"
   y="0px"
   version="1.1"
   id="svg6"
   width="77.550026"
   height="80"
   xmlns="http://www.w3.org/2000/svg"
   xmlns:svg="http://www.w3.org/2000/svg">
  <defs
     id="defs6" />
  <path
     d="m 77.55,72.5 v -54 a 7.44,7.44 0 0 0 -2.2,-5.3 L 62.56,0.44 A 1.5,1.5 0 0 0 61.5,0 H 7.5 A 7.51,7.51 0 0 0 0,7.5 v 65 A 7.51,7.51 0 0 0 7.5,80 h 62.55 a 7.51,7.51 0 0 0 7.5,-7.5 z M 17.79,3 h 42 v 22.88 a 1.5,1.5 0 0 1 -1.5,1.5 H 19.26 a 1.5,1.5 0 0 1 -1.5,-1.5 z m 44,74 H 16.57 V 43 a 1.5,1.5 0 0 1 1.5,-1.5 H 60.33 A 1.5,1.5 0 0 1 61.79,43 Z M 74.51,72.5 A 4.51,4.51 0 0 1 70.01,77 H 64.79 V 43 a 4.51,4.51 0 0 0 -4.5,-4.5 H 18.07 a 4.51,4.51 0 0 0 -4.5,4.5 v 34 h -6 A 4.51,4.51 0 0 1 3.07,72.5 V 7.5 A 4.51,4.51 0 0 1 7.57,3 h 7.22 v 22.88 a 4.51,4.51 0 0 0 4.5,4.5 h 39.03 a 4.51,4.51 0 0 0 4.5,-4.5 V 4.94 l 10.41,10.41 a 4.47,4.47 0 0 1 1.32,3.18 z"
     id="path1" />
  <path
     d="m 43.94,24.11 h 8 a 1.5,1.5 0 0 0 1.5,-1.5 V 7.77 a 1.5,1.5 0 0 0 -1.5,-1.5 h -8 a 1.5,1.5 0 0 0 -1.5,1.5 v 14.84 a 1.5,1.5 0 0 0 1.5,1.5 z m 1.5,-14.84 h 5 v 11.84 h -5 z"
     id="path2" />
  <path
     d="M 53.52,48.12 H 24.3 a 1.5,1.5 0 0 0 0,3 h 29.22 a 1.5,1.5 0 0 0 0,-3 z"
     id="path3" />
  <path
     d="M 53.52,57.75 H 24.3 a 1.5,1.5 0 1 0 0,3 h 29.22 a 1.5,1.5 0 1 0 0,-3 z"
     id="path4" />
  <path
     d="M 53.52,67.38 H 24.3 a 1.5,1.5 0 1 0 0,3 h 29.22 a 1.5,1.5 0 1 0 0,-3 z"
     id="path5" />
</svg>
