<?xml version="1.0" encoding="UTF-8" standalone="no"?>
<svg
   version="1.1"
   viewBox="-5 -10 46.834053 93.004539"
   id="svg3"
   sodipodi:docname="lava.svg"
   width="46.834053"
   height="93.004539"
   inkscape:version="1.4.2 (f4327f4, 2025-05-13)"
   xmlns:inkscape="http://www.inkscape.org/namespaces/inkscape"
   xmlns:sodipodi="http://sodipodi.sourceforge.net/DTD/sodipodi-0.dtd"
   xmlns="http://www.w3.org/2000/svg"
   xmlns:svg="http://www.w3.org/2000/svg">
  <defs
     id="defs3" />
  <sodipodi:namedview
     id="namedview3"
     pagecolor="#ffffff"
     bordercolor="#666666"
     borderopacity="1.0"
     inkscape:showpageshadow="2"
     inkscape:pageopacity="0.0"
     inkscape:pagecheckerboard="0"
     inkscape:deskcolor="#d1d1d1"
     inkscape:zoom="6.1407407"
     inkscape:cx="23.44994"
     inkscape:cy="53.983715"
     inkscape:window-width="1920"
     inkscape:window-height="1009"
     inkscape:window-x="632"
     inkscape:window-y="1437"
     inkscape:window-maximized="1"
     inkscape:current-layer="svg3" />
  <g
     id="g2"
     transform="translate(-31.600425,-13.4999)">
    <path
       d="m 27.43,63.301 c 0.62109,2.4492 1.5703,4.7305 2.8203,6.8008 l 6.1016,10.121 -3.8516,14.391 c -0.12109,0.44922 -0.01953,0.92969 0.26172,1.3008 0.28125,0.37109 0.71875,0.58984 1.1914,0.58984 h 32.109 c 0.46875,0 0.91016,-0.21875 1.1914,-0.58984 0.28125,-0.37109 0.37891,-0.85156 0.26172,-1.3008 l -3.8516,-14.391 6.1016,-10.121 c 1.25,-2.0703 2.1914,-4.3594 2.8203,-6.8008 1.2109,-4.7695 1.1211,-9.9883 -0.23828,-14.68 l -9.2695,-31.75 -2.3711,-8.1211 c -0.92188,-3.1406 -3.4219,-5.25 -6.2188,-5.25 h -8.9414 c -2.8008,0 -5.3008,2.1094 -6.2188,5.25 l -2.3711,8.1211 -9.2695,31.75 c -1.3594,4.6914 -1.4492,9.8984 -0.23828,14.68 z M 64.11,93.5 H 35.899 l 3.2109,-12 h 21.781 l 3.2109,12 z m 3.0781,-24.941 -5.9883,9.9414 H 38.8088 L 32.8205,68.559 c -0.76953,-1.2812 -1.4219,-2.6602 -1.9219,-4.1289 h 38.211 c -0.51172,1.4609 -1.1484,2.8398 -1.9219,4.1289 z M 47.2191,41.821 c -0.96875,-1.5195 -0.53125,-2.8086 -0.19141,-3.4414 0.60938,-1.1211 1.8086,-1.8711 2.9805,-1.8711 1.1719,0 2.3594,0.75 2.9805,1.8711 0.35156,0.62891 0.78125,1.9219 -0.19141,3.4414 -2.6016,4.0898 -1.6914,8.6211 2.5,12.43 1.3594,1.2383 2.0508,2.5117 2.0391,3.8008 0,1.5195 -0.96094,2.7891 -1.5,3.3906 h -11.672 c -0.53906,-0.60156 -1.4883,-1.8789 -1.5,-3.3906 0,-1.2812 0.67969,-2.5586 2.0391,-3.8008 4.1914,-3.8086 5.1094,-8.3398 2.5,-12.43 z M 42.1996,9.602 c 0.53906,-1.8516 1.8789,-3.0898 3.3398,-3.0898 h 8.9414 c 1.4609,0 2.8008,1.2383 3.3398,3.0898 l 1.8086,6.1992 h -19.238 z m -11.641,39.871 8.9492,-30.672 h 20.988 l 8.9492,30.672 c 1.1094,3.8203 1.2695,8.0312 0.46875,11.969 h -10.469 c 0.48047,-0.92969 0.85938,-2.0586 0.87891,-3.3398 0.01953,-2.1914 -0.98828,-4.2305 -3.0312,-6.0703 -2.1602,-1.9609 -4.25,-5.0391 -1.9883,-8.5898 1.3203,-2.0586 1.4219,-4.4297 0.28906,-6.4883 -1.1406,-2.0781 -3.3398,-3.4297 -5.6094,-3.4297 -2.2696,0 -4.4609,1.3516 -5.6094,3.4297 -1.1289,2.0586 -1.0312,4.4297 0.28906,6.4883 2.2617,3.5586 0.17188,6.6406 -1.9883,8.5898 -2.0312,1.8398 -3.0508,3.8906 -3.0312,6.0703 0.01172,1.2812 0.39844,2.4102 0.87891,3.3398 h -10.469 c -0.80078,-3.9492 -0.64063,-8.1484 0.46875,-11.969 z"
       id="path1" />
    <path
       d="m 50,31.66 c 2.8281,0 5.1406,-2.3086 5.1406,-5.1406 0,-2.8281 -2.3086,-5.1406 -5.1406,-5.1406 -2.8281,0 -5.1406,2.3086 -5.1406,5.1406 0,2.8281 2.3086,5.1406 5.1406,5.1406 z m 0,-7.2812 c 1.1797,0 2.1406,0.96094 2.1406,2.1406 0,1.1797 -0.96094,2.1406 -2.1406,2.1406 -1.17966,0 -2.1406,-0.96094 -2.1406,-2.1406 0,-1.1797 0.96094,-2.1406 2.1406,-2.1406 z"
       id="path2" />
  </g>
</svg>
