<?xml version="1.0" encoding="UTF-8" standalone="no"?>
<svg
   viewBox="0 0 34.048134 35.998829"
   x="0px"
   y="0px"
   version="1.1"
   id="svg2"
   sodipodi:docname="moon.svg"
   width="34.048134"
   height="35.998829"
   inkscape:version="1.4.2 (f4327f4, 2025-05-13)"
   xmlns:inkscape="http://www.inkscape.org/namespaces/inkscape"
   xmlns:sodipodi="http://sodipodi.sourceforge.net/DTD/sodipodi-0.dtd"
   xmlns="http://www.w3.org/2000/svg"
   xmlns:svg="http://www.w3.org/2000/svg">
  <defs
     id="defs2" />
  <sodipodi:namedview
     id="namedview2"
     pagecolor="#ffffff"
     bordercolor="#666666"
     borderopacity="1.0"
     inkscape:showpageshadow="2"
     inkscape:pageopacity="0.0"
     inkscape:pagecheckerboard="0"
     inkscape:deskcolor="#d1d1d1"
     inkscape:zoom="6.5132391"
     inkscape:cx="57.037672"
     inkscape:cy="33.393523"
     inkscape:window-width="1920"
     inkscape:window-height="1009"
     inkscape:window-x="620"
     inkscape:window-y="1432"
     inkscape:window-maximized="1"
     inkscape:current-layer="svg2" />
  <path
     d="m 11.600048,0.45883029 a 2,2 0 0 0 -2.3099998,-0.17 A 19.31,19.31 0 0 0 4.8172945e-5,16.83883 c 0,10.57 8.360000027055,19.16 18.629999827055,19.16 a 18.54,18.54 0 0 0 15,-7.79 2,2 0 0 0 -2.12,-3.15 16.19,16.19 0 0 1 -3.53,0.4 c -9.17,0 -16.64,-7.7 -16.64,-17.1599997 a 17.5,17.5 0 0 1 0.92,-5.61 2,2 0 0 0 -0.66,-2.23000001 z m 16.4,26.99999971 a 22.11,22.11 0 0 0 4,-0.41 16.31,16.31 0 0 1 -13.36,7 c -9.1799998,-0.05 -16.6399998,-7.75 -16.6399998,-17.21 a 17.13,17.13 0 0 1 8.3599998,-14.7899997 19.5,19.5 0 0 0 -0.9999998,6.25 C 9.3300482,18.85883 17.690048,27.45883 28.000048,27.45883 Z"
     id="path1" />
</svg>
