<?xml version="1.0" encoding="UTF-8" standalone="no"?>
<svg
   version="1.1"
   viewBox="-5 -10 87.500702 87.500801"
   id="svg2"
   sodipodi:docname="sun.svg"
   width="87.500702"
   height="87.500801"
   inkscape:version="1.4.2 (f4327f4, 2025-05-13)"
   xmlns:inkscape="http://www.inkscape.org/namespaces/inkscape"
   xmlns:sodipodi="http://sodipodi.sourceforge.net/DTD/sodipodi-0.dtd"
   xmlns="http://www.w3.org/2000/svg"
   xmlns:svg="http://www.w3.org/2000/svg">
  <defs
     id="defs2" />
  <sodipodi:namedview
     id="namedview2"
     pagecolor="#ffffff"
     bordercolor="#666666"
     borderopacity="1.0"
     inkscape:showpageshadow="2"
     inkscape:pageopacity="0.0"
     inkscape:pagecheckerboard="0"
     inkscape:deskcolor="#d1d1d1"
     inkscape:zoom="6.1407407"
     inkscape:cx="43.80579"
     inkscape:cy="51.133896"
     inkscape:window-width="933"
     inkscape:window-height="1032"
     inkscape:window-x="784"
     inkscape:window-y="1440"
     inkscape:window-maximized="0"
     inkscape:current-layer="svg2" />
  <path
     d="m 38.7507,15 c 10.348,0 18.75,8.4023 18.75,18.75 0,10.3477 -8.4023,18.75 -18.75,18.75 -10.3477,0 -18.75,-8.4023 -18.75,-18.75 0,-10.3477 8.4023,-18.75 18.75,-18.75 z m 0,6.25 c -6.8984,0 -12.5,5.6016 -12.5,12.5 0,6.8984 5.6016,12.5 12.5,12.5 6.8984,0 12.5,-5.6016 12.5,-12.5 0,-6.8984 -5.6016,-12.5 -12.5,-12.5 z m -3.125,-28.125 c 0,-1.7266 1.3984,-3.125 3.125,-3.125 1.7266,0 3.125,1.3984 3.125,3.125 v 12.5 c 0,1.7266 -1.3984,3.125 -3.125,3.125 -1.7266,0 -3.125,-1.3984 -3.125,-3.125 z m 29.641,9.6914 c 1.2227,-1.2227 3.1992,-1.2227 4.418,0 1.2227,1.2188 1.2227,3.1953 0,4.418 l -8.8359,8.8359 c -1.2188,1.2227 -3.1992,1.2227 -4.418,0 -1.2227,-1.2188 -1.2227,-3.1992 0,-4.418 z m 14.109,27.809 c 1.7266,0 3.125,1.3984 3.125,3.125 0,1.7266 -1.3984,3.125 -3.125,3.125 h -12.5 c -1.7266,0 -3.125,-1.3984 -3.125,-3.125 0,-1.7266 1.3984,-3.125 3.125,-3.125 z m -9.6914,29.641 c 1.2227,1.2227 1.2227,3.1992 0,4.418 -1.2188,1.2227 -3.1953,1.2227 -4.418,0 l -8.8359,-8.8359 c -1.2227,-1.2188 -1.2227,-3.1992 0,-4.418 1.2188,-1.2227 3.1992,-1.2227 4.418,0 z m -34.059,1.6094 c 0,-1.7266 1.3984,-3.125 3.125,-3.125 1.7266,0 3.125,1.3984 3.125,3.125 v 12.5 c 0,1.7266 -1.3984,3.125 -3.125,3.125 -1.7266,0 -3.125,-1.3984 -3.125,-3.125 z m -18.973,-10.445 c 1.2188,-1.2227 3.1992,-1.2227 4.418,0 1.2227,1.2188 1.2227,3.1992 0,4.418 l -8.8359,8.8359 c -1.2227,1.2227 -3.1992,1.2227 -4.418,0 -1.2227,-1.2188 -1.2227,-3.1953 0,-4.418 z M 10.625,30.6258 c 1.7266,0 3.125,1.3984 3.125,3.125 0,1.7266 -1.3984,3.125 -3.125,3.125 h -12.5 c -1.7266,0 -3.125,-1.3984 -3.125,-3.125 0,-1.7266 1.3984,-3.125 3.125,-3.125 z M 21.07,11.6528 c 1.2227,1.2188 1.2227,3.1992 0,4.418 -1.2188,1.2227 -3.1992,1.2227 -4.418,0 L 7.8161,7.2349 c -1.2227,-1.2227 -1.2227,-3.1992 0,-4.418 1.2188,-1.2227 3.1953,-1.2227 4.418,0 z"
     fill-rule="evenodd"
     id="path1" />
</svg>
