<?xml version="1.0" encoding="UTF-8" standalone="no"?>
<svg
   version="1.1"
   viewBox="-5 -10 91.428909 91.425003"
   id="svg2"
   width="91.428909"
   height="91.425003"
   xmlns="http://www.w3.org/2000/svg"
   xmlns:svg="http://www.w3.org/2000/svg">
  <defs
     id="defs2" />
  <path
     d="M 72.144,-10 H 9.285 C 1.41,-10 -5,-3.5898 -5,4.285 V 67.14 c 0,7.875 6.4102,14.285 14.285,14.285 H 72.14 c 7.875,0 14.285,-6.4102 14.285,-14.285 L 86.4289,4.285 C 86.4289,-3.59 80.0187,-10 72.1439,-10 Z M 29.359,42.859 V 15.714 H 52.07 v 27.145 z m 22.711,5.7109 v 27.145 H 29.359 V 48.5699 Z M 0.715,15.7149 h 22.93 v 27.145 H 0.715 Z m 57.07,0 h 22.93 v 27.145 h -22.93 z m -48.5,-20 H 72.14 c 4.7266,0 8.5703,3.8438 8.5703,8.5703 V 10 H 0.7143 V 4.2852 c 0,-4.7266 3.8438,-8.5703 8.5703,-8.5703 z m -8.5703,71.43 v -18.57 h 22.93 v 27.145 H 9.2857 c -4.7266,0 -8.5703,-3.8438 -8.5703,-8.5703 z m 71.43,8.5703 h -14.359 v -27.145 h 22.93 v 18.57 c 0,4.7266 -3.8438,8.5703 -8.5703,8.5703 z"
     id="path1" />
</svg>
