<?xml version="1.0" encoding="UTF-8" standalone="no"?>
<svg
   version="1.1"
   viewBox="-5 -10 78 72"
   id="svg2"
   sodipodi:docname="terminal.svg"
   inkscape:version="1.4.2 (f4327f4, 2025-05-13)"
   width="78"
   height="72"
   xmlns:inkscape="http://www.inkscape.org/namespaces/inkscape"
   xmlns:sodipodi="http://sodipodi.sourceforge.net/DTD/sodipodi-0.dtd"
   xmlns="http://www.w3.org/2000/svg"
   xmlns:svg="http://www.w3.org/2000/svg">
  <defs
     id="defs2" />
  <sodipodi:namedview
     id="namedview2"
     pagecolor="#ffffff"
     bordercolor="#000000"
     borderopacity="0.25"
     inkscape:showpageshadow="2"
     inkscape:pageopacity="0.0"
     inkscape:pagecheckerboard="0"
     inkscape:deskcolor="#d1d1d1"
     inkscape:zoom="4.2269272"
     inkscape:cx="73.812485"
     inkscape:cy="36.906242"
     inkscape:window-width="1127"
     inkscape:window-height="1000"
     inkscape:window-x="2697"
     inkscape:window-y="0"
     inkscape:window-maximized="0"
     inkscape:current-layer="svg2" />
  <g
     id="g2"
     transform="translate(-10,-24.0001)">
    <path
       d="m 37.828,47.172 c 1.5625,1.5625 1.5625,4.0938 0,5.6562 l -10,10 c -0.78125,0.78125 -1.8047,1.1719 -2.8281,1.1719 -1.0234,0 -2.0469,-0.39062 -2.8281,-1.1719 -1.5625,-1.5625 -1.5625,-4.0938 0,-5.6562 l 7.1719,-7.1719 -7.1719,-7.1719 c -1.5625,-1.5625 -1.5625,-4.0938 0,-5.6562 1.5625,-1.5624 4.0938,-1.5625 5.6562,0 z M 63,56.0001 H 45 c -2.2109,0 -4,1.7891 -4,4 0,2.2109 1.7891,4 4,4 h 18 c 2.2109,0 4,-1.7891 4,-4 0,-2.2109 -1.7891,-4 -4,-4 z m 20,-28.203 v 44.406 c 0,7.6094 -6.1875,13.797 -13.797,13.797 H 18.797 C 11.1876,86.0001 5,79.8087 5,72.2031 v -44.406 c 0,-7.6094 6.1875,-13.797 13.797,-13.797 h 50.406 c 7.6094,0 13.797,6.1914 13.797,13.797 z m -8,0 c 0,-3.1953 -2.6016,-5.7969 -5.7969,-5.7969 h -50.406 c -3.1953,0 -5.7969,2.6016 -5.7969,5.7969 v 44.406 c 0,3.1953 2.6016,5.7969 5.7969,5.7969 h 50.406 C 72.3984,78 75,75.3984 75,72.2031 Z"
       id="path1"
       sodipodi:nodetypes="scsscccsscssssssssssssssssssssssssss" />
  </g>
</svg>
