<?xml version="1.0" encoding="UTF-8" standalone="no"?>
<svg
   version="1.1"
   viewBox="-5 -10 37.5154 37.444752"
   id="svg2"
   width="37.5154"
   height="37.444752"
   xmlns="http://www.w3.org/2000/svg"
   xmlns:svg="http://www.w3.org/2000/svg">
  <defs
     id="defs2" />
  <path
     d="m 31.6013,-4.6797 -13.406,13.406 13.406,13.406 c 1.2188,1.2188 1.2188,3.1875 0,4.4062 -0.625,0.625 -1.4062,0.90625 -2.2188,0.90625 -0.8126,0 -1.5938,-0.3125 -2.2188,-0.90625 l -13.406,-13.406 -13.406,13.406 c -0.625,0.625 -1.4062,0.90625 -2.2188,0.90625 -0.8126,0 -1.5938,-0.3125 -2.2188,-0.90625 -1.2188,-1.2188 -1.2188,-3.1875 0,-4.4062 L 9.3201,8.7263 -4.0859,-4.6797 c -1.2188,-1.2188 -1.2188,-3.1875 0,-4.4062 1.2188,-1.2187 3.1875,-1.2188 4.4062,0 l 13.406,13.406 13.406,-13.406 c 1.2188,-1.2188 3.1875,-1.2188 4.4062,0 1.2187,1.2188 1.2188,3.1875 0,4.4062 z"
     id="path3" />
</svg>
