<?xml version="1.0" encoding="UTF-8" standalone="no"?>
<svg
   version="1.1"
   viewBox="-5 -10 85.734901 95.456505"
   id="svg2"
   sodipodi:docname="documentation.svg"
   width="85.734901"
   height="95.456505"
   inkscape:version="1.4.2 (f4327f4, 2025-05-13)"
   xmlns:inkscape="http://www.inkscape.org/namespaces/inkscape"
   xmlns:sodipodi="http://sodipodi.sourceforge.net/DTD/sodipodi-0.dtd"
   xmlns="http://www.w3.org/2000/svg"
   xmlns:svg="http://www.w3.org/2000/svg">
  <defs
     id="defs2" />
  <sodipodi:namedview
     id="namedview2"
     pagecolor="#ffffff"
     bordercolor="#666666"
     borderopacity="1.0"
     inkscape:showpageshadow="2"
     inkscape:pageopacity="0.0"
     inkscape:pagecheckerboard="0"
     inkscape:deskcolor="#d1d1d1"
     inkscape:zoom="6.1407407"
     inkscape:cx="42.095899"
     inkscape:cy="53.495175"
     inkscape:window-width="1920"
     inkscape:window-height="1009"
     inkscape:window-x="620"
     inkscape:window-y="1432"
     inkscape:window-maximized="1"
     inkscape:current-layer="svg2" />
  <path
     d="m 80.7349,9.347707 v 58.145 c 0,2.2656 -1.832,4.0977 -4.0977,4.0977 h -59.223 c -2.2656,0 -4.1016,-1.832 -4.1016,-4.0977 v -73.395 c 0,-2.2617 1.8359,-4.0938 4.1016,-4.0938 l 43.973,-0.00391 c 0.59766,0.00391 1.1758,0.23828 1.6094,0.66797 l 17.074,17.074 c 0.42969,0.42969 0.66406,1.0117 0.66406,1.6055 z m -21.621,-14.801 h -41.254 v 72.5 h 58.332 v -55.426 h -12.98 c -2.2617,0 -4.0977,-1.832 -4.0977,-4.0977 z m 13.863,12.531 -9.3164,-9.3164 v 9.3164 z m -43.414,22.574 c -1.2539,0 -2.2734,-1.0195 -2.2734,-2.2734 0,-1.2539 1.0195,-2.2734 2.2734,-2.2734 h 33.227 c 1.2539,0 2.2734,1.0195 2.2734,2.2734 0,1.2539 -1.0195,2.2734 -2.2734,2.2734 z m 0,12.039 c -1.2539,0 -2.2734,-1.0156 -2.2734,-2.2695 0,-1.2578 1.0195,-2.2734 2.2734,-2.2734 h 25.109 c 1.2539,0 2.2734,1.0156 2.2734,2.2734 0,1.2539 -1.0195,2.2695 -2.2734,2.2695 z m 0,-24.082 c -1.2539,0 -2.2734,-1.0195 -2.2734,-2.2734 0,-1.2539 1.0195,-2.2734 2.2734,-2.2734 h 20.023 c 1.2539,0 2.2734,1.0195 2.2734,2.2734 0,1.2539 -1.0195,2.2734 -2.2734,2.2734 z m -30.02,-10.75 v 74.051 h 58.332 v -4.3828 c 0,-1.2539 1.0195,-2.2734 2.2734,-2.2734 1.2539,0 2.2734,1.0195 2.2734,2.2734 v 4.3828 c 0,1.207 -0.48047,2.3633 -1.332,3.2148 -0.85156,0.85156 -2.0078,1.332 -3.2148,1.332 h -58.332 c -1.2031,0 -2.3594,-0.48047 -3.2109,-1.332 C -4.51956,83.272947 -5,82.116707 -5,80.909707 v -74.051 c 0,-1.207 0.48047,-2.3633 1.332,-3.2148 0.85156,-0.85156 2.0078,-1.332 3.2109,-1.332 h 8.8125 c 1.2539,0 2.2695,1.0195 2.2695,2.2734 0,1.2539 -1.0156,2.2734 -2.2695,2.2734 z"
     fill-rule="evenodd"
     id="path1"
     style="fill:#ffffff" />
</svg>
