<?xml version="1.0" encoding="UTF-8" standalone="no"?>
<svg
   version="1.1"
   x="0px"
   y="0px"
   viewBox="0 0 95 74"
   xml:space="preserve"
   id="svg2"
   sodipodi:docname="arrowright.svg"
   width="95"
   height="74"
   inkscape:version="1.4.2 (f4327f4, 2025-05-13)"
   xmlns:inkscape="http://www.inkscape.org/namespaces/inkscape"
   xmlns:sodipodi="http://sodipodi.sourceforge.net/DTD/sodipodi-0.dtd"
   xmlns="http://www.w3.org/2000/svg"
   xmlns:svg="http://www.w3.org/2000/svg"
   xmlns:i="http://ns.adobe.com/AdobeIllustrator/10.0/"><defs
     id="defs2" /><sodipodi:namedview
     id="namedview2"
     pagecolor="#ffffff"
     bordercolor="#666666"
     borderopacity="1.0"
     inkscape:showpageshadow="2"
     inkscape:pageopacity="0.0"
     inkscape:pagecheckerboard="0"
     inkscape:deskcolor="#d1d1d1"
     inkscape:zoom="6.632"
     inkscape:cx="47.421592"
     inkscape:cy="49.532569"
     inkscape:window-width="1920"
     inkscape:window-height="1009"
     inkscape:window-x="620"
     inkscape:window-y="1432"
     inkscape:window-maximized="1"
     inkscape:current-layer="svg2" /><switch
     id="switch1"
     transform="matrix(0,1,1,0,-2.5,-13)"><foreignObject
       requiredExtensions="http://ns.adobe.com/AdobeIllustrator/10.0/"
       x="0"
       y="0"
       width="1"
       height="1" /><g
       i:extraneous="self"
       id="g1"><path
         d="M 56.4,94.8 84.3,67 c 3.6,-3.6 3.6,-9.3 0,-12.9 -3.6,-3.6 -9.3,-3.6 -12.9,0 L 59.1,66.4 V 11.6 c 0,-5 -4.1,-9.1 -9.1,-9.1 -5,0 -9.1,4.1 -9.1,9.1 V 66.4 L 28.6,54.2 C 25,50.6 19.3,50.6 15.7,54.2 13.9,56 13,58.3 13,60.6 c 0,2.3 0.9,4.7 2.7,6.4 l 27.8,27.8 c 1.7,1.7 4,2.7 6.4,2.7 2.4,0 4.8,-1 6.5,-2.7 z"
         id="path1" /></g></switch></svg>
